# xmcd database file
#
# Track frame offsets:
# 187
# 17250
# 31517
# 39917
# 57365
# 77762
# 92565
# 104065
# 117552
# 128002
# 141970
# 159647
# 172832
# 184520
# 195965
# 208355
# 217742
# 229235
# 236275
# 248982
# 266685
# 281280
#
# Disc length: 3961 seconds
#
# Revision: 2
# Processed by: cddbd v1.4PL0 Copyright (c) Steve Scherf et al.
# Submitted via: CD-Runner 2003.00
#
DISCID=200f7716
DTITLE=Moro - Pieces Of Anda
DYEAR=1988
DGENRE=Jazz
TTITLE0=Vermouth Rondo
TTITLE1=Hosanna Blue
TTITLE2=Thespian's Ballad
TTITLE3=Ambiant Nuance
TTITLE4=Moonset
TTITLE5=Rain, Sun and Moon
TTITLE6=Gavotte
TTITLE7=Tune The Gypsy Played
TTITLE8=Dancing Horse
TTITLE9=Mosquito's Dream
TTITLE10=Undecided Samba
TTITLE11=Trebeck Street Waltz
TTITLE12=Bougainvillea
TTITLE13=Featherfoot
TTITLE14=Pieces Of Anda
TTITLE15=Minuet In E
TTITLE16=Bodgea Raggae
TTITLE17=Interlude
TTITLE18=Francesca's Tune
TTITLE19=Yucatan Ragetta
TTITLE20=Centurias
TTITLE21=Alegria
EXTD=Typed By JayK       MFSL Cafe CD 739         1988\nICQ 16696495
EXTT0=
EXTT1=
EXTT2=
EXTT3=
EXTT4=
EXTT5=
EXTT6=
EXTT7=
EXTT8=
EXTT9=
EXTT10=
EXTT11=
EXTT12=
EXTT13=
EXTT14=
EXTT15=
EXTT16=
EXTT17=
EXTT18=
EXTT19=
EXTT20=
EXTT21=
PLAYORDER=
